<svg xmlns="http://www.w3.org/2000/svg" viewBox="0 0 64 64"><defs><style>.cls-1{fill:#ff7f00;}.cls-2{fill:#ffda00;}.cls-3{fill:#ff2400;}.cls-4{fill:#78909c;}.cls-5{fill:#cfd8dd;}.cls-6{fill:#00cde2;}</style></defs><title>Space Rocket</title><g id="Layer_2" data-name="Layer 2"><g id="Layer_1-2" data-name="Layer 1"><path class="cls-1" d="M0,64S4,48,10,54,0,64,0,64Z"/><path class="cls-2" d="M4,60s2.59-10.36,6.47-6.47S4,60,4,60Z"/><path class="cls-3" d="M0,40l18,6,6,18,7.09-4.25A6,6,0,0,0,34,54.6V32H9a6,6,0,0,0-4.8,2.4Z"/><path class="cls-4" d="M10,44,6.64,50.71A2,2,0,0,0,7,53l4,4a2,2,0,0,0,2.31.37L20,54Z"/><path class="cls-5" d="M64,0a54.67,54.67,0,0,1-1.72,11.9A55.66,55.66,0,0,1,48,38c-7.51,7.51-18.54,13.7-28.14,18.15a4,4,0,0,1-4.51-.8l-6.7-6.7a4,4,0,0,1-.8-4.51C12.3,34.54,18.49,23.51,26,16A55.66,55.66,0,0,1,52.1,1.72,54.67,54.67,0,0,1,64,0Z"/><circle class="cls-4" cx="42" cy="22" r="8"/><circle class="cls-6" cx="42" cy="22" r="6"/><path class="cls-3" d="M64,0a54.67,54.67,0,0,1-1.72,11.9A22.1,22.1,0,0,0,58,6a22.1,22.1,0,0,0-5.9-4.28A54.67,54.67,0,0,1,64,0Z"/></g></g></svg>